<svg height="512pt" viewBox="0 -25 512 512" width="512pt" xmlns="http://www.w3.org/2000/svg"><path d="m161.230469 415.261719c-8.621094 0-15.609375-6.988281-15.609375-15.609375 0-45.644532-37.136719-82.78125-82.78125-82.78125-8.621094 0-15.609375-6.988282-15.609375-15.609375 0-8.621094 6.988281-15.609375 15.609375-15.609375 62.859375 0 114 51.140625 114 114 0 8.621094-6.988282 15.609375-15.609375 15.609375zm0 0" fill="#414952"/><path d="m401.933594 384.042969h-291.867188c-8.621094 0-15.609375 6.988281-15.609375 15.609375s6.988281 15.609375 15.609375 15.609375h291.867188c8.621094 0 15.609375-6.988281 15.609375-15.609375s-6.988281-15.609375-15.609375-15.609375zm0 0" fill="#64e1dc"/><path d="m110.066406 399.652344c0 26.082031-21.144531 47.230468-47.226562 47.230468-26.085938 0-47.230469-21.148437-47.230469-47.230468 0-26.082032 21.144531-47.230469 47.230469-47.230469 26.082031 0 47.226562 21.148437 47.226562 47.230469zm0 0" fill="#dbeeff"/><path d="m62.839844 462.488281c-34.652344 0-62.839844-28.1875-62.839844-62.835937 0-34.648438 28.1875-62.839844 62.839844-62.839844 34.648437 0 62.835937 28.191406 62.835937 62.839844 0 34.648437-28.1875 62.835937-62.835937 62.835937zm0-94.453125c-17.4375 0-31.621094 14.183594-31.621094 31.617188s14.183594 31.617187 31.621094 31.617187c17.433594 0 31.617187-14.183593 31.617187-31.617187s-14.183593-31.617188-31.617187-31.617188zm0 0" fill="#414952"/><path d="m401.933594 384.042969h-145.9375v31.21875h145.9375c8.621094 0 15.609375-6.988281 15.609375-15.609375s-6.988281-15.609375-15.609375-15.609375zm0 0" fill="#00c8c8"/><path d="m449.160156 89.652344h-26.238281c-27.71875 0-50.269531 22.550781-50.269531 50.273437v101.851563c0 27.722656 22.550781 50.273437 50.269531 50.273437h26.238281c8.621094 0 15.609375-6.992187 15.609375-15.613281v-171.171875c0-8.621094-6.988281-15.613281-15.609375-15.613281zm0 0" fill="#00c8c8"/><path d="m449.160156 415.261719c-8.621094 0-15.609375-6.988281-15.609375-15.609375v-368.433594h-40.316406c-8.621094 0-15.613281-6.988281-15.613281-15.609375s6.992187-15.609375 15.613281-15.609375h55.925781c8.621094 0 15.609375 6.988281 15.609375 15.609375v384.042969c0 8.621094-6.988281 15.609375-15.609375 15.609375zm0 0" fill="#636978"/><path d="m496.390625 399.652344c0 26.082031-21.144531 47.230468-47.230469 47.230468-26.082031 0-47.226562-21.148437-47.226562-47.230468 0-26.082032 21.144531-47.230469 47.226562-47.230469 26.085938 0 47.230469 21.148437 47.230469 47.230469zm0 0" fill="#dbeeff"/><path d="m496.390625 399.652344c0-26.082032-21.144531-47.230469-47.230469-47.230469v94.460937c26.085938 0 47.230469-21.148437 47.230469-47.230468zm0 0" fill="#b2d3ff"/><path d="m449.160156 462.488281c-34.648437 0-62.835937-28.1875-62.835937-62.835937 0-34.648438 28.1875-62.839844 62.835937-62.839844 34.652344 0 62.839844 28.191406 62.839844 62.839844 0 34.648437-28.1875 62.835937-62.839844 62.835937zm0-94.453125c-17.433594 0-31.617187 14.183594-31.617187 31.617188s14.183593 31.617187 31.617187 31.617187c17.4375 0 31.621094-14.183593 31.621094-31.617187s-14.183594-31.617188-31.621094-31.617188zm0 0" fill="#414952"/><path d="m449.160156 336.8125v31.222656c17.4375 0 31.621094 14.183594 31.621094 31.617188s-14.183594 31.617187-31.621094 31.617187v31.21875c34.652344 0 62.839844-28.1875 62.839844-62.835937 0-34.648438-28.1875-62.839844-62.839844-62.839844zm0 0" fill="#23272b"/><path d="m110.066406 399.652344c0-26.082032-21.144531-47.230469-47.226562-47.230469v94.460937c26.082031 0 47.226562-21.148437 47.226562-47.230468zm0 0" fill="#b2d3ff"/><path d="m94.457031 399.652344c0 17.433594-14.183593 31.617187-31.617187 31.617187v31.21875c34.648437 0 62.835937-28.1875 62.835937-62.835937 0-34.648438-28.1875-62.839844-62.835937-62.839844v31.222656c17.433594 0 31.617187 14.183594 31.617187 31.617188zm0 0" fill="#23272b"/></svg>