<svg id="Capa_1" enable-background="new 0 0 512.002 512.002" height="512" viewBox="0 0 512.002 512.002" width="512" xmlns="http://www.w3.org/2000/svg"><g><g><path d="m321.988 49.599-1.532 2.696v25.125l1.139 2.644h23.682l2.804-2.644-3-10.5.625-7.125 11.5-7.75 1.528-2.426h.012v-.02z" fill="#dbedff"/><path d="m344.581 190.044 19.25 1.799 15.613-3.617-15.363-55.307-6.526-4.984c-8.22 1.436-15.761 4.845-22.109 9.733-4.318 3.325-6.126 8.984-4.772 14.263l8.384 32.69z" fill="#1ca8ff"/><path d="m464.058 360.27h-8.995l-26.482 21.935-10.75 30.214 4.76 27.349 12.99 19.651 15.25 7 11.51 3.325c24.265-6.513 42.185-28.689 42.185-54.982-.001-25.667-17.08-47.413-40.468-54.492z" fill="#7b6c79"/><path d="m297.706 52.169v25.25l2.3 2.644h21.589c1.965-4.862 3.069-10.165 3.069-15.732 0-5.187-.958-10.145-2.676-14.732h-21.449z" fill="#b5dcff"/><path d="m377.392 180.84-1.829 5.548c-5.841 1.989-12.096 3.083-18.61 3.083-2.898 0-5.746-.216-8.528-.631-3.869-.577-7.279-2.578-9.688-5.469l8.809 34.346c1.377 5.368 5.814 9.435 11.295 10.253 2.442.364 4.941.554 7.485.554 5.717 0 11.207-.961 16.334-2.706l3.921-11.898z" fill="#0094fd"/><path d="m359.164 328.918 9.243-9.769 30.09-17.479 9.089-2.394-6.422-19.106-5.729-4.54c-8.001 10.245-23.734 31.45-38.686 51.766z" fill="#fbc700"/><path d="m320.971 376.278 9.261 5.927h34.7l2.597-5.927c8.955-18.556 24.179-33.53 42.901-42.191 0 0-.001 0-.002.001v-.001h.002l5.414-10.247-9.551-28.414c-18.559 6.481-35.266 17.191-48.859 31.041-18.743 25.461-36.463 49.811-36.463 49.811z" fill="#eab900"/><path d="m423.591 414.763c0-25.668 17.079-47.414 40.467-54.493-5.214-1.578-10.739-2.436-16.461-2.436-31.391 0-56.929 25.538-56.929 56.928 0 31.391 25.538 56.929 56.929 56.929 5.723 0 11.247-.858 16.461-2.436-23.388-7.078-40.467-28.824-40.467-54.492z" fill="#665e68"/><path d="m208.74 376.278v4.141l7.415 34.343h129.635c6.979 0 12.831-5.182 13.776-12.096 1.276-9.333 4.014-18.206 7.963-26.388z" fill="#7b6c79"/><path d="m216.335 402.187-.399-4.167c-1.463-7.637-3.909-14.929-7.196-21.741h-53c3.287 6.813 5.733 14.104 7.196 21.741l.399 4.167c.683 7.131 6.674 12.576 13.838 12.576h53c-7.164 0-13.155-5.445-13.838-12.576z" fill="#665e68"/><path d="m401.885 300.777 27.612-7.274 2.424-4.105-58.424-227.798c-2.189-8.538-10.882-13.69-19.426-11.495-8.539 2.189-13.686 10.887-11.495 19.426z" fill="#ffd500"/><path d="m410.429 334.088c9.523-4.405 19.948-7.168 30.92-7.935l-9.427-36.756c-10.742 1.353-21.108 4.076-30.904 7.997z" fill="#fbc700"/><path d="m461.683 394.115h-2.477l-9.625 8.055-4.625 7 1.25 18.25 7 6.5 8.477 1.491c6.587-4.508 10.92-12.081 10.92-20.648 0-8.568-4.333-16.14-10.92-20.648z" fill="#60b9fe"/><path d="m450.763 414.763c0-8.567 4.333-16.14 10.92-20.648-4.014-2.747-8.865-4.358-14.086-4.358-13.789 0-25.006 11.218-25.006 25.006s11.218 25.006 25.006 25.006c5.221 0 10.072-1.611 14.086-4.358-6.587-4.509-10.92-12.081-10.92-20.648z" fill="#1ca8ff"/><path d="m92.15 360.27h-8.995l-26.482 21.935-10.75 30.214 4.76 27.349 12.99 19.651 15.25 7 11.51 3.325c24.265-6.513 42.185-28.689 42.185-54.982-.001-25.667-17.08-47.413-40.468-54.492z" fill="#7b6c79"/><path d="m51.683 414.763c0-25.668 17.079-47.414 40.467-54.493-5.214-1.578-10.739-2.436-16.461-2.436-31.391 0-56.929 25.538-56.929 56.928 0 31.391 25.538 56.929 56.929 56.929 5.723 0 11.247-.858 16.461-2.436-23.388-7.078-40.467-28.824-40.467-54.492z" fill="#665e68"/><path d="m89.775 394.115h-2.477l-9.625 8.055-4.625 7 1.25 18.25 7 6.5 8.477 1.491c6.587-4.508 10.92-12.081 10.92-20.648 0-8.568-4.333-16.14-10.92-20.648z" fill="#60b9fe"/><path d="m78.855 414.763c0-8.567 4.333-16.14 10.92-20.648-4.014-2.747-8.865-4.358-14.086-4.358-13.789 0-25.006 11.218-25.006 25.006s11.218 25.006 25.006 25.006c5.221 0 10.072-1.611 14.086-4.358-6.587-4.509-10.92-12.081-10.92-20.648z" fill="#1ca8ff"/><path d="m288.331 43.556-6.838 10.447-1.495 15.833 4.167 10.227 3.333 3.773 5.26 2.07c7.684-4.052 12.924-12.115 12.924-21.406 0-8.952-4.866-16.762-12.094-20.945h-5.257z" fill="#7b6c79"/><path d="m281.492 64.501c0-8.952 4.866-16.762 12.095-20.945-3.559-2.06-7.687-3.244-12.095-3.244-13.359 0-24.189 10.83-24.189 24.189s10.83 24.189 24.189 24.189c4.407 0 8.536-1.185 12.095-3.244-7.228-4.183-12.095-11.993-12.095-20.945z" fill="#665e68"/></g><g><path d="m75.665 350.335c-35.526 0-64.429 28.902-64.429 64.429 0 35.525 28.903 64.428 64.429 64.428s64.429-28.902 64.429-64.428c0-35.527-28.903-64.429-64.429-64.429zm0 113.856c-27.255 0-49.429-22.173-49.429-49.428s22.174-49.429 49.429-49.429 49.429 22.174 49.429 49.429-22.174 49.428-49.429 49.428z"/><path d="m75.665 382.256c-17.924 0-32.506 14.582-32.506 32.507 0 17.924 14.582 32.506 32.506 32.506s32.506-14.582 32.506-32.506c0-17.925-14.582-32.507-32.506-32.507zm0 50.013c-9.653 0-17.506-7.854-17.506-17.506 0-9.653 7.853-17.507 17.506-17.507s17.506 7.854 17.506 17.507-7.853 17.506-17.506 17.506z"/><path d="m447.573 382.256c-17.924 0-32.506 14.582-32.506 32.507 0 17.924 14.582 32.506 32.506 32.506s32.506-14.582 32.506-32.506c.001-17.925-14.582-32.507-32.506-32.507zm0 50.013c-9.653 0-17.506-7.854-17.506-17.506 0-9.653 7.853-17.507 17.506-17.507s17.506 7.854 17.506 17.507c.001 9.653-7.853 17.506-17.506 17.506z"/><path d="m447.573 350.335c-35.526 0-64.429 28.902-64.429 64.429 0 35.525 28.903 64.428 64.429 64.428s64.429-28.902 64.429-64.428c0-35.527-28.903-64.429-64.429-64.429zm0 113.856c-27.255 0-49.429-22.173-49.429-49.428s22.174-49.429 49.429-49.429 49.429 22.174 49.429 49.429-22.174 49.428-49.429 49.428z"/><path d="m447.574 333.412c9.099 0 18.036 1.497 26.562 4.451 3.916 1.355 8.187-.718 9.542-4.632 1.356-3.914-.718-8.187-4.632-9.542-10.109-3.502-20.698-5.277-31.472-5.277-.164 0-.325.01-.489.011l-35.665-139.06c-1.029-4.012-5.113-6.43-9.128-5.401-4.012 1.029-6.431 5.115-5.401 9.128l35.038 136.614c-5.566.913-11.745 2.561-16.391 4.205l-25.636-99.954s-40.084-156.286-40.084-156.288c-1.162-4.533 1.566-9.135 6.097-10.298.003-.001.007-.001.01-.002 4.478-1.146 9.111 1.522 10.285 6.096l21.986 85.724c1.029 4.013 5.117 6.43 9.128 5.401 4.012-1.029 6.431-5.115 5.401-9.128l-21.986-85.724c-2.786-10.862-12.595-17.771-22.984-17.637h-53.892c-5.738-5.736-13.658-9.288-22.393-9.288-17.473 0-31.689 14.216-31.689 31.689s14.216 31.689 31.689 31.689c8.391 0 16.025-3.284 21.7-8.627h36.266l8.965 34.954c-6.315 2.046-12.284 5.151-17.553 9.209-6.656 5.125-9.585 13.788-7.461 22.069l16.872 65.784c2.139 8.341 8.99 14.546 17.453 15.808 6.28.937 12.829.872 19.531-.413l9.994 38.965c-17.469 22.702-59.876 80.807-70.104 94.839h-58.97c-4.142 0-7.5 3.357-7.5 7.5s3.358 7.5 7.5 7.5h98.176c-1.884 5.505-3.375 11.651-4.226 17.873-.438 3.199-3.166 5.612-6.346 5.612h-168.617c-3.316 0-6.056-2.49-6.373-5.792-.232-2.416-.401-7.402-3.895-17.693h56.279c4.142 0 7.5-3.357 7.5-7.5s-3.358-7.5-7.5-7.5h-62.839c-16.504-30.334-48.645-50.366-84.658-50.366-28.576 0-55.518 12.613-73.917 34.606-2.658 3.177-2.237 7.907.94 10.564 3.176 2.658 7.907 2.238 10.565-.939 15.542-18.577 38.29-29.231 62.413-29.231 45.252 0 77.013 36.454 80.181 69.49 1.057 11.038 10.216 19.361 21.304 19.361h168.617c10.642 0 19.759-7.988 21.207-18.581 5.476-40.052 40.127-70.269 80.6-70.269zm-87.65-112.861c-2.483-.37-4.5-2.215-5.137-4.698l-16.872-65.784c-.631-2.463.186-4.997 2.083-6.458 3.662-2.82 7.775-5.034 12.131-6.549l21.379 83.356c-4.466.754-9.105.799-13.584.133zm-95.144-156.05c0-9.202 7.487-16.689 16.689-16.689 9.114 0 16.689 7.418 16.689 16.689 0 9.151-7.448 16.689-16.689 16.689-9.202 0-16.689-7.487-16.689-16.689zm47.336 8.062c1.353-5.133 1.325-10.662.18-15.464h23.831c-2.129 5.44-1.876 10.254-.539 15.464zm23.584 296.215c13.541-18.544 39.822-54.438 56.29-76.304l9.652 37.632c-16.317 8.886-29.813 22.358-38.712 38.672z"/></g></g></svg>