<svg id="Capa_1" enable-background="new 0 0 515.654 515.654" height="512" viewBox="0 0 515.654 515.654" width="512" xmlns="http://www.w3.org/2000/svg"><g><path d="m470.529 122.327h-29.188c-25.399 0-46.062 20.663-46.062 46.062v118.625c0 25.399 20.663 46.062 46.062 46.062h29.188z" fill="#021e57"/><path d="m184.279 468.702c0-58.104-47.271-105.375-105.375-105.375-28.147 0-54.609 10.961-74.511 30.864-5.858 5.858-5.857 15.355 0 21.213 5.857 5.859 15.355 5.857 21.213 0 14.236-14.236 33.164-22.077 53.298-22.077 41.562 0 75.375 33.813 75.375 75.375z" fill="#1d356f"/><g><path d="m440.404 1.827h-30.125c-8.284 0-15 6.716-15 15s6.716 15 15 15h30.125c8.34 0 15.125 6.785 15.125 15.125v406.75h-346.5c-8.284 0-15 6.716-15 15s6.716 15 15 15h361.5c8.284 0 15-6.716 15-15v-421.75c0-24.882-20.243-45.125-45.125-45.125z" fill="#ff3e5d"/></g><path d="m440.404 1.827h-30.125c-8.284 0-15 6.716-15 15s6.716 15 15 15h30.125c8.34 0 15.125 6.785 15.125 15.125v406.75h-197.702v30h212.702c8.284 0 15-6.716 15-15v-421.75c0-24.882-20.243-45.125-45.125-45.125z" fill="#d62b47"/><circle cx="470.529" cy="468.702" fill="#1d356f" r="30.125"/><path d="m470.529 513.827c-24.882 0-45.125-20.243-45.125-45.125s20.243-45.125 45.125-45.125 45.125 20.243 45.125 45.125-20.243 45.125-45.125 45.125zm0-60.25c-8.34 0-15.125 6.785-15.125 15.125s6.785 15.125 15.125 15.125 15.125-6.785 15.125-15.125-6.785-15.125-15.125-15.125z" fill="#021e57"/><circle cx="78.904" cy="468.702" fill="#3f558d" r="30.125"/><path d="m78.904 513.827c-24.882 0-45.125-20.243-45.125-45.125s20.243-45.125 45.125-45.125 45.125 20.243 45.125 45.125-20.243 45.125-45.125 45.125zm0-60.25c-8.34 0-15.125 6.785-15.125 15.125s6.785 15.125 15.125 15.125 15.125-6.785 15.125-15.125-6.785-15.125-15.125-15.125z" fill="#1d356f"/></g></svg>